# xmcd
#
# Track frame offsets:
#	150
#	12347
#	26517
#	39615
#	52425
#	62955
#	78005
#	87652
#	101972
#	111852
#	128387
#	143102
#	153307
#	163940
#	173897
#	183892
#	199642
#	212505
#	221710
#	236457
#
# Disc length: 3334 seconds
#
# Revision: 1
# Processed by: cddbd v1.5.1PL0 Copyright (c) Steve Scherf et al.
# Submitted via: CDex 1.50Beta5
#
DISCID=1a0d0414
DTITLE=Various Artist - STANDARD VOCAL
DYEAR=1900
DGENRE=Soundtrack
TTITLE0=枯葉
TTITLE1=ミスティ
TTITLE2=サテン・ドール
TTITLE3=FLY ME TO THE MOON
TTITLE4=MY FUNNY VALENTINE
TTITLE5=BEGIN THE BEGIN
TTITLE6=HOW HIGH THE MOON
TTITLE7=THE DAYS OF WINE AND ROSE
TTITLE8=IT DON'T MEAN A THING
TTITLE9=IT DON'T MEAN A THING
TTITLE10=IT DON'T MEAN A THING
TTITLE11=ST. LOUIS BLUES
TTITLE12=DINAH
TTITLE13=THE WORLD IS WAITING FOR A SUNRISE
TTITLE14=SOFTLY AS IN A MORNNING SUNRISE
TTITLE15=SUMMERTIME
TTITLE16=SIDE BY SIDE
TTITLE17=THE SHADOW OF YOUR SMILE
TTITLE18=DAY BY DAY
TTITLE19=BEI MIR BIST DU SCHON
EXTD=
EXTT0=
EXTT1=
EXTT2=
EXTT3=
EXTT4=
EXTT5=
EXTT6=
EXTT7=
EXTT8=
EXTT9=
EXTT10=
EXTT11=
EXTT12=
EXTT13=
EXTT14=
EXTT15=
EXTT16=
EXTT17=
EXTT18=
EXTT19=
PLAYORDER=
